<?xml version="1.0" encoding="UTF-8" standalone="no"?>
<svg
   width="100"
   height="100"
   viewBox="0 0 26.458333 26.458333"
   version="1.1"
   id="svg8"
   xmlns="http://www.w3.org/2000/svg"
   xmlns:svg="http://www.w3.org/2000/svg"
   xmlns:rdf="http://www.w3.org/1999/02/22-rdf-syntax-ns#"
   xmlns:cc="http://creativecommons.org/ns#"
   xmlns:dc="http://purl.org/dc/elements/1.1/">
  <defs
     id="defs2" />
  <metadata
     id="metadata5">
    <rdf:RDF>
      <cc:Work
         rdf:about="">
        <dc:format>image/svg+xml</dc:format>
        <dc:type
           rdf:resource="http://purl.org/dc/dcmitype/StillImage" />
      </cc:Work>
    </rdf:RDF>
  </metadata>
  <g
     id="layer1"
     style="display:inline">
    <g
       id="g15">
      <rect
         style="fill:none;fill-opacity:1;stroke:none;stroke-width:0.529167;stroke-linecap:round;stroke-linejoin:round"
         id="rect4"
         width="26.458332"
         height="26.458332"
         x="4.691162e-07"
         y="4.691162e-07" />
      <path
         id="rect33"
         style="display:inline;fill:#00a162;fill-opacity:1;stroke:none;stroke-width:12.3523;stroke-linecap:round;stroke-linejoin:round;stroke-dasharray:none;stroke-opacity:1;paint-order:stroke fill markers"
         d="M 13.229166,0 C 9.4581636,-2.7338397e-5 6.401132,3.057003 6.4011596,6.8280069 v 4.2674401 c -1.8913164,0 -3.4137451,1.522329 -3.4137451,3.413745 v 8.535396 c 0,1.891316 1.5224287,3.413745 3.4137451,3.413745 H 20.057173 c 1.89137,0 3.413745,-1.522429 3.413745,-3.413745 v -8.535396 c 0,-1.891416 -1.522375,-3.413745 -3.413745,-3.413745 V 6.8280069 C 20.057201,3.0570027 17.000173,-2.766977e-5 13.229166,0 Z m 0,2.5605672 c 2.356864,-6.8e-5 4.267508,1.9105768 4.26744,4.2674397 V 11.095447 H 8.9617268 V 6.8280069 C 8.9616589,4.4711443 10.872305,2.5604996 13.229166,2.5605672 Z M 11.106815,14.022916 h 4.244703 c 0.537594,0 0.97002,0.43289 0.969966,0.970484 v 3.041675 c 0,0.0016 -4.83e-4,0.0031 -5.17e-4,0.0047 2.63e-4,0.30854 -0.03332,0.6036 -0.104903,0.870747 -0.06592,0.246001 -0.16058,0.476571 -0.278536,0.690398 l -2.885095,4.73201 c -0.169328,0.348388 -0.658469,0.368063 -0.854728,0.03411 l -0.665076,-1.10846 c -0.07079,-0.120066 -0.08674,-0.264915 -0.04341,-0.397391 l 1.120862,-3.422014 h -1.503268 c -0.537592,0 -0.969966,-0.432889 -0.969966,-0.970483 V 14.9934 c 0,-0.537593 0.432374,-0.970484 0.969966,-0.970484 z" />
    </g>
  </g>
</svg>
